<?xml version="1.0" encoding="UTF-8"?><svg id="Layer_1" xmlns="http://www.w3.org/2000/svg" viewBox="0 0 773 300"><defs><style>.cls-1,.cls-2{fill:#007bf9;}.cls-3{fill:#f85464;}.cls-4{fill:#fff;}.cls-5{fill:#fcba2e;}.cls-6{fill:#1a314e;}.cls-7{fill:none;opacity:0;}.cls-2{opacity:.6;}</style></defs><g class="cls-7"><rect class="cls-4" width="773" height="300"/></g><path class="cls-3" d="m575.26,287.06l191.92-19.87c2.61-.27,4.98,2.12,4.15,4.17l-9.62,23.72c-.42,1.03-1.56,1.64-2.91,1.57l-183.54-9.6Z"/><path class="cls-5" d="m581.29,272.2l150.74-41.01c2.69-.73,5.62,1.82,4.7,4.08l-8.64,21.29c-.35.87-1.22,1.46-2.33,1.56l-144.48,14.08Z"/><path class="cls-1" d="m306.94,205.2h43.05v16.35h-69.75v-13.2l42.15-51.75h-40.05v-16.35h66.15v12.9l-41.55,52.05Z"/><path class="cls-6" d="m451.64,219.6l16.5-110.85h73.65l-2.85,19.2h-53.1l-3.9,26.1h49.05l-2.85,19.05h-49.05l-4.05,27.3h53.1l-2.85,19.2h-73.65Z"/><path class="cls-6" d="m621.14,105.6h19.5l-16.95,114h-19.2l1.35-9.3c-7.95,7.5-17.1,11.25-27.3,11.25-12.15,0-21.45-4.35-28.05-13.2-6.45-8.85-8.85-19.5-6.9-31.65,1.65-12.15,6.75-21.9,15.15-29.25,8.55-7.5,18.45-11.25,30-11.25,10.95,0,19.65,4.2,25.95,12.6l6.45-43.2Zm-19.5,90.9c5.25-4.95,8.25-10.8,9-17.7.9-6.6-.6-12.3-4.35-17.25-3.75-4.95-9.15-7.5-16.2-7.5-6.6,0-12.3,2.1-17.25,6.45-4.95,4.35-7.95,9.75-9.15,16.2-1.35,7.2-.3,13.5,3.3,18.9,3.75,5.4,9.15,8.1,16.5,8.1s13.05-2.4,18.15-7.2Z"/><path class="cls-6" d="m653.69,211.65c-5.85-6.6-7.8-16.05-5.85-28.2l6.9-45.3h19.5l-7.05,46.65c-1.8,11.85,3.6,18.9,13.95,18.9,11.25,0,18.75-7.65,20.7-20.7l6.9-44.85h19.5l-6.9,45.3c-3.75,25.35-19.2,38.1-42.15,38.1-11.25,0-19.65-3.3-25.5-9.9Z"/><path class="cls-6" d="m371.64,189.44l2.52-17.08h56.7l-2.52,17.08h-56.7Z"/><path class="cls-1" d="m250.31,71.05c-25.05,1.42-74.83,6.59-105.56,25.41-2.12,1.3-3.32,3.61-3.32,6.02v166.3c0,5.28,5.77,8.62,10.64,6.17,31.62-15.91,77.34-20.26,99.95-21.44,7.72-.41,13.72-6.59,13.72-14.01V85.08c0-8.09-7.02-14.51-15.43-14.03Z"/><polygon class="cls-5" points="195.52 3.33 205.8 18.03 223.5 17.82 212.97 32.22 218.73 49.26 201.94 43.47 187.79 54.21 187.94 36.22 173.45 25.82 190.33 20.5 195.52 3.33"/><polygon class="cls-3" points="140.69 42.52 148.29 53.38 161.37 53.22 153.59 63.86 157.84 76.45 145.44 72.17 134.99 80.1 135.1 66.82 124.39 59.14 136.86 55.21 140.69 42.52"/><polygon class="cls-1" points="259.83 23.46 267.42 34.32 280.5 34.16 272.72 44.81 276.97 57.39 264.57 53.11 254.12 61.05 254.23 47.76 243.52 40.08 256 36.15 259.83 23.46"/><path class="cls-2" d="m123.49,96.46c-30.73-18.81-80.51-23.98-105.55-25.41-8.42-.48-15.44,5.94-15.44,14.03v154.41c0,7.42,6,13.61,13.72,14.01,22.62,1.19,68.37,5.53,99.98,21.46,4.85,2.45,10.61-.89,10.61-6.15V102.4c0-2.42-1.2-4.63-3.32-5.94Z"/><path class="cls-4" d="m170.59,139.63c9.06-9.06,20.06-13.54,33-13.54s23.93,4.47,32.87,13.54c9.06,9.06,13.54,19.94,13.54,32.75s-4.47,23.69-13.54,32.63c-8.94,8.94-19.94,13.42-33.12,13.42s-24.17-4.35-33-13.17c-8.82-8.82-13.17-19.7-13.17-32.63s4.47-23.93,13.42-33Zm53.66,11.36c-5.68-5.68-12.57-8.58-20.67-8.58s-15.11,2.9-20.79,8.58c-5.68,5.68-8.46,12.81-8.46,21.39s2.78,15.71,8.34,21.39c5.68,5.68,12.57,8.46,20.91,8.46s15.23-2.78,20.91-8.46c5.68-5.68,8.46-12.81,8.34-21.39,0-8.58-2.9-15.71-8.58-21.39Z"/></svg>