<?xml version="1.0" encoding="UTF-8"?>
<svg id="Layer_1" data-name="Layer 1" xmlns="http://www.w3.org/2000/svg" viewBox="0 0 150 80">
  <defs>
    <style>
      .cls-1, .cls-2 {
        fill: #fff;
      }

      .cls-2 {
        opacity: 0;
      }

      .cls-3 {
        opacity: .6;
      }

      .cls-3, .cls-4 {
        fill: #007bf9;
      }

      .cls-5 {
        fill: #f85464;
      }

      .cls-6 {
        fill: #fcba2e;
      }
    </style>
  </defs>
  <rect class="cls-2" width="150" height="80"/>
  <g>
    <g>
      <path d="M97.86,47.43c-.94-1.15-1.27-2.59-1.04-4.3,.23-1.77,.94-3.17,2.15-4.2,1.23-1.04,2.67-1.57,4.34-1.57,2.32,0,4.09,1.06,4.91,3.05l-1.96,1c-.56-1.29-1.57-1.94-2.96-1.94-1.06,0-1.98,.35-2.8,1.09-.79,.71-1.25,1.63-1.4,2.76-.13,1.04,.1,1.92,.67,2.65,.56,.71,1.36,1.06,2.34,1.06,1.42,0,2.84-.77,3.67-1.96l1.69,1.25c-1.17,1.77-3.28,2.82-5.55,2.82-1.75,0-3.11-.56-4.05-1.71Z"/>
      <path d="M119.55,37.64h2.21l-1.69,11.25h-2.19l.23-1.61c-1.19,1.25-2.55,1.88-4.09,1.88-1.69,0-2.96-.61-3.84-1.84-.86-1.23-1.17-2.71-.9-4.43,.25-1.65,.96-2.96,2.15-3.99,1.19-1.02,2.57-1.55,4.16-1.55s2.82,.63,3.72,1.9l.25-1.63Zm-2.19,8.31c.77-.75,1.23-1.65,1.38-2.71,.17-1.02-.04-1.9-.61-2.63-.56-.75-1.38-1.13-2.42-1.13s-1.88,.33-2.63,.98c-.73,.65-1.21,1.44-1.42,2.42-.23,1.11-.06,2.07,.46,2.92,.54,.84,1.38,1.25,2.51,1.25,1.06,0,1.96-.38,2.74-1.11Z"/>
      <path d="M123.04,48.89l1.69-11.25h2.17l-.25,1.57c.84-1.23,2-1.86,3.51-1.86,.46,0,.94,.06,1.46,.21l-.63,2.21c-.4-.15-.81-.21-1.21-.21-1.73,0-3.26,1.25-3.61,3.67l-.84,5.66h-2.3Z"/>
      <path d="M141.58,38.93c.9,1.02,1.21,2.44,.94,4.22-.06,.44-.15,.77-.21,1h-8.81c.06,1.73,1.09,2.94,3.19,2.94,1.32,0,2.92-.5,4.03-1.25l.81,1.75c-1.23,.9-3.17,1.55-5.03,1.55-4.22,0-5.66-3.07-5.22-6.08,.25-1.69,.98-3.07,2.17-4.11,1.19-1.06,2.65-1.59,4.34-1.59s2.88,.52,3.78,1.57Zm-7.79,3.34h6.56c.1-1.77-.98-2.92-2.67-2.92-1.77,0-3.28,1.15-3.88,2.92Z"/>
    </g>
    <g>
      <path class="cls-5" d="M124.65,57.39l24.79-2.57c.34-.04,.64,.27,.54,.54l-1.24,3.06c-.05,.13-.2,.21-.38,.2l-23.71-1.24Z"/>
      <path class="cls-6" d="M125.43,55.47l19.47-5.3c.35-.09,.73,.23,.61,.53l-1.12,2.75c-.05,.11-.16,.19-.3,.2l-18.66,1.82Z"/>
    </g>
    <path class="cls-4" d="M39.41,46.82h5.56v2.11h-9.01v-1.7l5.44-6.68h-5.17v-2.11h8.54v1.67l-5.37,6.72Z"/>
    <g>
      <path d="M58.1,48.68l2.13-14.32h9.51l-.37,2.48h-6.86l-.5,3.37h6.33l-.37,2.46h-6.33l-.52,3.53h6.86l-.37,2.48h-9.51Z"/>
      <path d="M79.99,33.96h2.52l-2.19,14.72h-2.48l.17-1.2c-1.03,.97-2.21,1.45-3.53,1.45-1.57,0-2.77-.56-3.62-1.7-.83-1.14-1.14-2.52-.89-4.09,.21-1.57,.87-2.83,1.96-3.78,1.1-.97,2.38-1.45,3.87-1.45,1.41,0,2.54,.54,3.35,1.63l.83-5.58Zm-2.52,11.74c.68-.64,1.07-1.39,1.16-2.29,.12-.85-.08-1.59-.56-2.23-.48-.64-1.18-.97-2.09-.97-.85,0-1.59,.27-2.23,.83-.64,.56-1.03,1.26-1.18,2.09-.17,.93-.04,1.74,.43,2.44,.48,.7,1.18,1.05,2.13,1.05s1.69-.31,2.34-.93Z"/>
      <path d="M84.19,47.65c-.76-.85-1.01-2.07-.76-3.64l.89-5.85h2.52l-.91,6.02c-.23,1.53,.46,2.44,1.8,2.44,1.45,0,2.42-.99,2.67-2.67l.89-5.79h2.52l-.89,5.85c-.48,3.27-2.48,4.92-5.44,4.92-1.45,0-2.54-.43-3.29-1.28Z"/>
    </g>
    <path d="M47.77,44.78l.33-2.21h7.32l-.33,2.21h-7.32Z"/>
    <path class="cls-4" d="M32.09,29.49c-3.23,.18-9.66,.85-13.63,3.28-.27,.17-.43,.47-.43,.78v21.48c0,.68,.75,1.11,1.37,.8,4.08-2.06,9.99-2.62,12.91-2.77,1-.05,1.77-.85,1.77-1.81V31.31c0-1.05-.91-1.87-1.99-1.81Z"/>
    <g>
      <polygon class="cls-6" points="25.02 20.75 26.35 22.65 28.63 22.62 27.27 24.48 28.02 26.68 25.85 25.93 24.02 27.32 24.04 25 22.17 23.65 24.35 22.96 25.02 20.75"/>
      <polygon class="cls-5" points="17.94 25.81 18.92 27.21 20.61 27.19 19.6 28.56 20.15 30.19 18.55 29.64 17.2 30.66 17.21 28.95 15.83 27.95 17.44 27.45 17.94 25.81"/>
      <polygon class="cls-4" points="33.32 23.35 34.3 24.75 35.99 24.73 34.99 26.1 35.54 27.73 33.94 27.18 32.59 28.2 32.6 26.49 31.22 25.49 32.83 24.99 33.32 23.35"/>
    </g>
    <path class="cls-3" d="M15.71,32.78c-3.97-2.43-10.4-3.1-13.63-3.28-1.09-.06-1.99,.77-1.99,1.81v19.94c0,.96,.78,1.76,1.77,1.81,2.92,.15,8.83,.71,12.91,2.77,.63,.32,1.37-.11,1.37-.79v-21.49c0-.31-.15-.6-.43-.77Z"/>
    <path class="cls-1" d="M21.8,38.35c1.17-1.17,2.59-1.75,4.26-1.75s3.09,.58,4.25,1.75c1.17,1.17,1.75,2.58,1.75,4.23s-.58,3.06-1.75,4.21c-1.16,1.16-2.58,1.73-4.28,1.73s-3.12-.56-4.26-1.7c-1.14-1.14-1.7-2.54-1.7-4.21s.58-3.09,1.73-4.26Zm6.93,1.47c-.73-.73-1.62-1.11-2.67-1.11s-1.95,.37-2.68,1.11c-.73,.73-1.09,1.65-1.09,2.76s.36,2.03,1.08,2.76c.73,.73,1.62,1.09,2.7,1.09s1.97-.36,2.7-1.09,1.09-1.65,1.08-2.76c0-1.11-.37-2.03-1.11-2.76Z"/>
  </g>
</svg>